<svg xmlns="http://www.w3.org/2000/svg" viewBox="0 0 1080 1350" width="1080" height="1350">
  <rect width="1080" height="1350" fill="#fffffd"/>
  <path d="M646.1512671886926,811.6375440529016 Q646.1512671886926,811.6375440529016 646.6002079664037,811.6684014362672 L710.4997113906256,816.0604539561765 Q735.4408657079076,817.774753032046 745.1290406409912,840.8212119024662 L886.2961419056361,1176.632839543731 Q895.9843168387197,1199.6792984141514 893.8234257711852,1224.5857343252617 L883.9161468365367,1338.7770563898475 Q881.7552557690021,1363.6834923009578 858.0974943900828,1355.6020118339816 L199.32078099239445,1130.564187834027 Q175.6630196134752,1122.4827073670508 196.52167062363,1108.7016813516711 L645.7758114705098,811.8856025211784 Q646.1512671886926,811.6375440529016 646.1512671886926,811.6375440529016 Z" fill="#FFBB26" fill-opacity="0.1" stroke="#FF5500" stroke-width="4" stroke-linejoin="round" stroke-linecap="round"/>
  <path d="M1382.4,1728 Q1382.4,1728 1381.95,1728 L1039.3199945789838,1728 Q1014.3199945789837,1728 1005.7715196323911,1704.506946216222 L890.3037307155947,1387.1765460847357 Q881.7552557690021,1363.6834923009578 883.9161468365367,1338.7770563898475 L893.8234257711852,1224.5857343252617 Q895.9843168387197,1199.6792984141514 916.4073876352513,1185.260623744132 L1139.1826322295774,1027.98144627171 Q1159.605703026109,1013.5627716016907 1182.8407129062564,1022.7895974843796 L1359.1649901198527,1092.8095119639897 Q1382.4,1102.0363378466786 1382.4,1127.0363378466786 L1382.4,1727.55 Q1382.4,1728 1382.4,1728 Z" fill="#FF7A00" fill-opacity="0.1" stroke="#FF5500" stroke-width="4" stroke-linejoin="round" stroke-linecap="round"/>
  <path d="M-302.40000000000003,-378.00000000000006 Q-302.40000000000003,-378.00000000000006 -301.95000000000005,-378.00000000000006 L542.848914029166,-378.00000000000006 Q550.0830446194561,-378.00000000000006 550.0706955309364,-370.7658799500297 L550.0679512890432,-369.158297716703 Q550.0556022005235,-361.92417766673265 546.7117242613341,-355.50926334733816 L256.7953374606894,200.6679700732722 Q245.2394293337415,222.83688947322355 226.41517013857577,239.28825007814677 L-283.5757408048343,684.9920780045059 Q-302.40000000000003,701.4434386094291 -302.40000000000003,676.4434386094291 L-302.40000000000003,-377.55000000000007 Q-302.40000000000003,-378.00000000000006 -302.40000000000003,-378.00000000000006 Z" fill="#FF5500" fill-opacity="0.1" stroke="#FF5500" stroke-width="4" stroke-linejoin="round" stroke-linecap="round"/>
  <path d="M646.1512671886926,811.6375440529016 Q646.1512671886926,811.6375440529016 645.8979999031585,811.2655821165717 L259.30983408563316,243.5014414915458 Q245.2394293337415,222.83688947322355 256.7953374606894,200.6679700732722 L538.4996940735756,-339.7552582667813 Q550.0556022005235,-361.92417766673265 564.3249182696158,-341.39647397342236 L665.465154346091,-195.8970830007618 Q679.7344704151833,-175.36937930745154 684.1244611757339,-150.7578376831997 L798.2185427846819,488.8861597103662 Q802.6085335452325,513.497701334618 802.4956096630034,538.4974462972535 L801.5972435392861,737.3829568965988 Q801.484319657057,762.3827018592343 782.3296406385466,778.4481390365364 L754.595544726418,801.7093158547439 Q735.4408657079076,817.774753032046 710.4997113906256,816.0604539561765 L646.6002079664037,811.6684014362672 Q646.1512671886926,811.6375440529016 646.1512671886926,811.6375440529016 Z" fill="#8A2200" fill-opacity="0.1" stroke="#FF5500" stroke-width="4" stroke-linejoin="round" stroke-linecap="round"/>
  <path d="M646.1512671886926,811.6375440529016 Q646.1512671886926,811.6375440529016 645.7758114705098,811.8856025211784 L196.52167062363,1108.7016813516711 Q175.6630196134752,1122.4827073670508 151.3494453947108,1128.3007919924783 L-278.0864257812357,1231.0620815180473 Q-302.40000000000003,1236.8801661434748 -302.40000000000003,1211.8801661434748 L-302.40000000000003,726.4434386094291 Q-302.40000000000003,701.4434386094291 -283.5757408048343,684.9920780045059 L226.41517013857577,239.28825007814677 Q245.2394293337415,222.83688947322355 259.30983408563316,243.5014414915458 L645.8979999031585,811.2655821165717 Q646.1512671886926,811.6375440529016 646.1512671886926,811.6375440529016 Z" fill="#FFBB26" fill-opacity="0.1" stroke="#FF5500" stroke-width="4" stroke-linejoin="round" stroke-linecap="round"/>
  <path d="M735.4408657079076,817.774753032046 Q735.4408657079076,817.774753032046 735.7856499302408,817.4855751628545 L782.3296406385466,778.4481390365364 Q801.484319657057,762.3827018592343 826.0235646736645,757.6051026697983 L903.8850781010584,742.4460746236122 Q928.424323117666,737.6684754341761 952.1683833111957,745.4927712827515 L1117.1934247386598,799.8728872371299 Q1140.9374849321896,807.6971830857053 1143.1952605770352,832.5950233361676 L1157.3479273812634,988.6649313512283 Q1159.605703026109,1013.5627716016907 1139.1826322295774,1027.98144627171 L916.4073876352513,1185.260623744132 Q895.9843168387197,1199.6792984141514 886.2961419056361,1176.632839543731 L735.6152528567031,818.1895892917136 Q735.4408657079076,817.774753032046 735.4408657079076,817.774753032046 Z" fill="#FF7A00" fill-opacity="0.1" stroke="#FF5500" stroke-width="4" stroke-linejoin="round" stroke-linecap="round"/>
  <path d="M802.6085335452325,513.497701334618 Q802.6085335452325,513.497701334618 802.5295137115426,513.0546935853814 L684.1244611757339,-150.7578376831997 Q679.7344704151833,-175.36937930745154 697.8213261472746,-158.11059459570208 L1195.4713239970904,316.7554795253786 Q1213.5581797291816,334.01426423712803 1197.2421093046062,352.95590740503445 L1130.8156247050738,430.0717040056439 Q1114.4995542804984,449.0133471735503 1090.0173459635319,454.0751132610592 L803.0492132949379,513.4065895450428 Q802.6085335452325,513.497701334618 802.6085335452325,513.497701334618 Z" fill="#FF5500" fill-opacity="0.1" stroke="#FF5500" stroke-width="4" stroke-linejoin="round" stroke-linecap="round"/>
  <path d="M801.484319657057,762.3827018592343 Q801.484319657057,762.3827018592343 801.4863522869371,761.9327064499068 L802.4956096630034,538.4974462972535 Q802.6085335452325,513.497701334618 827.090741862199,508.4359352471091 L1090.0173459635319,454.0751132610592 Q1114.4995542804984,449.0133471735503 1100.9542931426672,470.025864888188 L941.9695842554971,716.6559577195385 Q928.424323117666,737.6684754341761 903.8850781010584,742.4460746236122 L801.9260260673559,762.2967050738245 Q801.484319657057,762.3827018592343 801.484319657057,762.3827018592343 Z" fill="#8A2200" fill-opacity="0.1" stroke="#FF5500" stroke-width="4" stroke-linejoin="round" stroke-linecap="round"/>
  <path d="M928.424323117666,737.6684754341761 Q928.424323117666,737.6684754341761 928.6681378181469,737.2902501153127 L1100.9542931426672,470.025864888188 Q1114.4995542804984,449.0133471735503 1130.8156247050738,430.0717040056439 L1197.2421093046062,352.95590740503445 Q1213.5581797291816,334.01426423712803 1237.2397150517556,342.02581120170856 L1358.718464677426,383.1225008617268 Q1382.4,391.1340478263073 1382.4,416.1340478263073 L1382.4,659.3283385813811 Q1382.4,684.3283385813811 1360.1374395199116,695.7028012443118 L1163.200045412278,796.3227204227746 Q1140.9374849321896,807.6971830857053 1117.1934247386598,799.8728872371299 L928.8517162011494,737.8093127594504 Q928.424323117666,737.6684754341761 928.424323117666,737.6684754341761 Z" fill="#FFBB26" fill-opacity="0.1" stroke="#FF5500" stroke-width="4" stroke-linejoin="round" stroke-linecap="round"/>
  <path d="M-302.40000000000003,1728 Q-302.40000000000003,1728 -302.40000000000003,1727.55 L-302.40000000000003,1261.8801661434748 Q-302.40000000000003,1236.8801661434748 -278.0864257812357,1231.0620815180473 L151.3494453947108,1128.3007919924783 Q175.6630196134752,1122.4827073670508 199.32078099239445,1130.564187834027 L858.0974943900828,1355.6020118339816 Q881.7552557690021,1363.6834923009578 890.3037307155947,1387.1765460847357 L1005.7715196323911,1704.506946216222 Q1014.3199945789837,1728 989.3199945789837,1728 L-301.95000000000005,1728 Q-302.40000000000003,1728 -302.40000000000003,1728 Z" fill="#FF7A00" fill-opacity="0.1" stroke="#FF5500" stroke-width="4" stroke-linejoin="round" stroke-linecap="round"/>
  <path d="M1382.4,1102.0363378466786 Q1382.4,1102.0363378466786 1381.9817698221575,1101.8702549807902 L1182.8407129062564,1022.7895974843796 Q1159.605703026109,1013.5627716016907 1157.3479273812634,988.6649313512283 L1143.1952605770352,832.5950233361676 Q1140.9374849321896,807.6971830857053 1163.200045412278,796.3227204227746 L1360.1374395199116,695.7028012443118 Q1382.4,684.3283385813811 1382.4,709.3283385813811 L1382.4,1101.5863378466786 Q1382.4,1102.0363378466786 1382.4,1102.0363378466786 Z" fill="#FF5500" fill-opacity="0.1" stroke="#FF5500" stroke-width="4" stroke-linejoin="round" stroke-linecap="round"/>
  <path d="M1382.4,-378.00000000000006 Q1382.4,-378.00000000000006 1382.4,-377.55000000000007 L1382.4,366.1340478263073 Q1382.4,391.1340478263073 1358.718464677426,383.1225008617268 L1237.2397150517556,342.02581120170856 Q1213.5581797291816,334.01426423712803 1195.4713239970904,316.7554795253786 L697.8213261472746,-158.11059459570208 Q679.7344704151833,-175.36937930745154 665.465154346091,-195.8970830007618 L554.184646035641,-355.98417409728523 Q550.0556022005235,-361.92417766673265 550.0679512890432,-369.158297716703 L550.0706955309364,-370.7658799500297 Q550.0830446194561,-378.00000000000006 557.3171752097462,-378.00000000000006 L1381.95,-378.00000000000006 Q1382.4,-378.00000000000006 1382.4,-378.00000000000006 Z" fill="#8A2200" fill-opacity="0.1" stroke="#FF5500" stroke-width="4" stroke-linejoin="round" stroke-linecap="round"/>
</svg>
